# xmcd
#
# Track frame offsets: 
#        183
#        12215
#        24260
#        36570
#        48903
#        62018
#        78415
#        92968
#        103630
#        114318
#        127428
#        142000
#        154563
#        166465
#        180628
#        194705
#
# Disc length: 2746 seconds
#
# Revision: 1
# Processed by: cddbd v1.5.1PL0 Copyright (c) Steve Scherf et al.
# Submitted via: ExactAudioCopy v0.95a5
#
DISCID=dd0ab810
DTITLE=Ray Charles - Essential Collection [CD 1)
DYEAR=1999
DGENRE=Blues
TTITLE0=See See Rider
TTITLE1=How Long Blues
TTITLE2=I Love You, I Love You
TTITLE3=Can't You See Darling
TTITLE4=Lonely Boy
TTITLE5=Let Me Hear You Call My Name
TTITLE6=Someday (You´ll want me to want you)
TTITLE7=Ain't That Fine
TTITLE8=Hey Now
TTITLE9=Why Did You Go
TTITLE10=Kissa Me Baby
TTITLE11=Goin'Down Slow
TTITLE12=Guitar Blues
TTITLE13=Baby Let Me Hold Your Hand
TTITLE14=This Love Is Mine
TTITLE15=She's On The Ball
EXTD=
EXTT0=
EXTT1=
EXTT2=
EXTT3=
EXTT4=
EXTT5=
EXTT6=
EXTT7=
EXTT8=
EXTT9=
EXTT10=
EXTT11=
EXTT12=
EXTT13=
EXTT14=
EXTT15=
PLAYORDER=
